<?xml version="1.0" encoding="UTF-8"?>
<!-- Created with Inkscape (http://www.inkscape.org/) -->
<svg width="297mm" height="210mm" version="1.1" viewBox="0 0 297 210" xml:space="preserve" xmlns="http://www.w3.org/2000/svg"><path d="m181.03 125.16c-0.30222-0.13154-0.55812-0.38939-0.61319-0.61784-0.052-0.21565-0.0396-1.4319 0.0274-2.7028 0.15074-2.8562 0.20565-2.9308 2.1635-2.9396 0.69954-3e-3 2.1335-0.11842 3.1866-0.25624 3.457-0.45242 3.5767-0.45882 3.7894-0.20258 0.24771 0.29847 1.372 4.1781 1.372 4.7344 0 0.96378-0.33974 1.1647-2.7472 1.6245-3.0853 0.58929-6.2834 0.74974-7.1785 0.36015zm-9.6375-1.6016c-2.3389-0.78436-5.8262-2.4535-6.5618-3.1407-0.29314-0.27383-0.51422-0.64896-0.51422-0.87253 0-0.48946 2.3454-4.0288 2.9186-4.4044 0.41237-0.2702 0.4719-0.25241 2.4565 0.73388 1.1186 0.55594 2.6924 1.2394 3.4972 1.5189 1.8203 0.63211 2.068 0.7642 2.1975 1.1721 0.0817 0.25727-0.47248 2.9032-1.0211 4.8758-0.1021 0.36709-0.52171 0.7926-0.77845 0.78939-0.10793-1e-3 -1.0953-0.30397-2.1942-0.67248zm25.518-2.4474c-0.64175-0.72779-2.3461-4.604-2.2113-5.0289 0.0559-0.17629 0.75369-0.7486 1.5505-1.2718 1.6189-1.0629 3.1332-2.1832 4.0716-3.0122 1.0138-0.89558 1.3608-0.79692 3.2496 0.924 2.1496 1.9585 2.2623 2.0934 2.1438 2.5652-0.20704 0.82492-4.8008 4.5376-6.9708 5.6338-1.101 0.5562-1.4761 0.59505-1.8334 0.18986zm-38.727-5.932c-0.96784-0.71406-2.6182-2.7145-4.3704-5.2974-1.1988-1.7672-1.4266-2.5347-0.94315-3.1771 0.30298-0.40255 3.5778-1.9774 4.3184-2.0768 0.37266-0.05 0.73137-2e-3 0.87491 0.1172 0.13381 0.11105 0.72716 0.92624 1.3186 1.8115s1.6439 2.2364 2.339 3.0024c0.84777 0.93435 1.2637 1.5264 1.2637 1.7988 0 0.27602-0.50995 0.98524-1.5925 2.2148-1.9685 2.2358-2.1991 2.3513-3.2086 1.6065zm49.323-6.6976c-0.99866-0.69653-1.9469-1.3824-2.1071-1.5243-0.43203-0.38234-0.35441-1.161 0.20218-2.0284 0.66826-1.0414 1.5498-2.994 2.025-4.4854 0.56036-1.7585 0.58346-1.767 3.3615-1.2408 2.8802 0.54563 3.1924 0.74556 3.0565 1.9572-0.19109 1.7038-2.7509 7.616-3.5798 8.268-0.22378 0.17602-0.5724 0.32003-0.77473 0.32003-0.20232 0-1.185-0.56988-2.1836-1.2664zm5.9263-14.81c-0.22893-0.0316-1.1471-0.10553-2.0404-0.16428-2.336-0.15363-2.3084-0.11973-2.4644-3.0366-0.0691-1.2932-0.21981-3.0399-0.33484-3.8816-0.19774-1.447-0.19178-1.5431 0.10916-1.7632 0.43175-0.3157 4.3279-1.5504 4.8924-1.5504 0.70847 0 0.98352 0.47821 1.3345 2.3202 0.67665 3.5511 0.80184 7.3795 0.25611 7.8324-0.25206 0.20919-1.1237 0.33029-1.7525 0.24348z" fill="#6ab0d6"/><path d="m108.71 127.22c-8.6011-1.1868-16.494-5.7108-22.055-12.642-4.2474-5.2933-6.8462-10.767-7.9059-16.652-1.1976-6.651-0.62945-13.613 1.6012-19.62 3.2744-8.818 9.2294-15.725 17.244-20.001 2.8899-1.5419 7.2259-2.9721 10.45-3.4468 2.1473-0.31616 7.0664-0.35312 8.9075-0.06694 9.414 1.4633 16.673 6.1731 23.622 15.326 1.8258 2.405 3.2673 4.6195 3.2673 5.0195 0 0.13486-0.61042 1.2524-1.3565 2.4835s-2.1341 3.5494-3.0846 5.1519c-0.95044 1.6025-1.7878 2.9342-1.8607 2.9593-0.20194 0.06955-0.45824-0.27517-2.943-3.9583-3.4827-5.1624-4.441-6.4045-6.551-8.4915-3.6859-3.6458-6.7716-5.5216-10.7-6.5045-1.9873-0.4972-5.8429-0.62123-7.9758-0.25657-5.3179 0.90922-9.4205 3.2386-13.375 7.5938-2.6339 2.901-4.7989 7.3345-5.732 11.738-0.36325 1.7142-0.4246 2.4353-0.43206 5.0781-0.0097 3.4454 0.21146 5.0396 1.0639 7.6685 0.59873 1.8464 2.0018 4.7866 3.0145 6.3171 4.581 6.923 12.501 11.236 19.709 10.731 5.437-0.3808 9.5322-2.3756 13.997-6.8181 3.6534-3.6351 7.3066-8.8722 13.472-19.313 8.7587-14.832 12.08-19.721 16.682-24.557 4.8183-5.0632 11.122-8.7348 17.293-10.073 2.1952-0.47591 2.0782-0.27137 2.0752-3.6266-1e-3 -1.5775-0.0699-2.9745-0.1521-3.1045-0.10177-0.16078-0.63453-0.27127-1.6673-0.34576-1.6178-0.11669-2.0635-0.31627-2.7464-1.2297-0.31088-0.41585-0.34826-0.73656-0.39607-3.3986-0.0348-1.9366 0.0154-3.1831 0.14716-3.6536 0.23655-0.84489 1.0693-1.6475 1.8584-1.7913 0.29957-0.05458 3.9911-0.077 8.2034-0.04984l7.6588 0.04939 0.56051 0.39977c1.0108 0.72088 1.1799 1.3828 1.184 4.6333 5e-3 4.2907-0.3013 4.8002-3.051 5.0667-0.83819 0.08124-1.6176 0.18102-1.7321 0.22172-0.26282 0.09346-0.30282 6.1666-0.0417 6.328 0.0915 0.05658 1.1592 0.35404 2.3726 0.66103 3.9634 1.0028 6.9549 2.2707 10.485 4.4442 1.0707 0.6592 1.7194 0.96154 1.9147 0.89248 0.34184-0.12084 2.9315-3.1487 3.016-3.5264 0.0312-0.1393-0.0949-0.41517-0.28028-0.61304-0.99602-1.0634-0.80106-1.9614 0.77779-3.5826 1.6493-1.6935 2.196-1.686 4.1909 0.05778 0.59522 0.52028 1.7507 1.5202 2.5676 2.222 3.2777 2.8157 3.5375 3.1318 3.3571 4.0851-0.15309 0.80911-1.4008 2.5485-2.2573 3.1469-0.58228 0.40681-1.343 0.35795-2.0025-0.12863-0.31029-0.22893-0.69139-0.41624-0.84688-0.41624-0.43168 0-3.3161 3.2021-3.3149 3.68 3.1e-4 0.12793 0.45707 0.75706 1.015 1.3981 1.2652 1.4535 2.979 3.9223 3.4064 4.9068 0.46743 1.0769 0.44044 3.2937-0.0534 4.3846-0.45261 0.99983-1.9024 2.4336-2.9732 2.9404-1.0861 0.51405-2.7152 0.62902-3.926 0.27704-1.5023-0.43673-2.4112-1.17-3.845-3.1019-1.7929-2.4159-3.0468-3.7838-4.655-5.0783-7.0118-5.644-15.85-6.7937-23.351-3.0377-2.8691 1.4367-6.5814 4.7025-9.4148 8.2824-2.203 2.7835-5.6654 8.1718-9.7355 15.151-5.1142 8.7696-10.239 16.861-12.667 20-1.969 2.5453-4.4588 5.3333-6.0772 6.8048-5.1955 4.7244-9.9955 7.2401-16.383 8.5862-1.8429 0.38837-2.6344 0.46301-5.3278 0.50238-1.7399 0.0254-3.6504-0.021-4.2456-0.10309z" fill="#0d5994"/><path d="m25.71 168.35c-4.5613-0.99113-8.4957-4.7791-9.6892-9.3286-0.39633-1.5107-0.39493-4.6575 0.0029-6.4101 1.4792-6.517 7.9195-10.725 15.177-9.9153 2.9005 0.32343 5.8024 1.6193 7.5112 3.3541l0.78411 0.79608-1.3783 1.3009c-0.75806 0.71547-1.4259 1.3199-1.484 1.3432-0.05815 0.0233-0.47554-0.26325-0.92754-0.63676-1.7659-1.4593-3.3528-2.1101-5.5308-2.2682-1.6445-0.1194-3.0027 0.11924-4.715 0.82845-2.2324 0.92462-4.4277 3.5458-4.9807 5.9468-0.25577 1.1105-0.21652 3.62 0.07432 4.7518 1.2071 4.6972 6.1872 7.6268 11.026 6.486 1.2937-0.30502 3.0276-1.1668 4.1793-2.0772l0.87619-0.69259 1.2805 1.1253c0.70429 0.6189 1.3437 1.178 1.4208 1.2425 0.25987 0.21708-0.23305 0.82247-1.4701 1.8055-2.4298 1.9309-4.2001 2.5079-7.9939 2.6053-2.2046 0.0566-2.9223 0.0123-4.1624-0.25716zm21.894 0.21384c-0.97571-0.16167-2.6054-0.77646-3.2696-1.2334-1.4869-1.023-2.2829-2.5867-2.2803-4.4796 0.0021-1.5836 0.46648-2.7194 1.502-3.6739 1.5553-1.4337 3.1779-1.8135 7.7634-1.8176 2.0549-2e-3 3.427-0.0713 3.638-0.18417 0.29531-0.15805 0.32389-0.28076 0.22295-0.95735-0.15013-1.0063-0.42411-1.6458-0.99553-2.3234-1.5105-1.7914-5.0888-1.9505-8.3775-0.37251-0.78218 0.37532-1.4792 0.62368-1.5488 0.55192-0.06968-0.0718-0.42862-0.70244-0.79765-1.4015-0.77786-1.4735-0.79738-1.4243 0.90233-2.2743 3.7661-1.8835 9.448-1.9008 12.257-0.0373 0.39808 0.26409 0.99553 0.84106 1.3277 1.2822 1.5599 2.0716 1.6383 2.5655 1.6413 10.334l0.0025 6.3684h-3.9959v-0.8377c0-1.0814-0.29281-1.2097-1.1145-0.48828-1.4775 1.2972-4.4038 1.9545-6.8773 1.5447zm4.7105-3.3834c1.9432-0.72706 3.0019-2.188 2.915-4.0226l-0.04992-1.0541h-3.3299c-3.3227 0-3.3316 9.8e-4 -4.0991 0.45218-0.97177 0.57128-1.3801 1.3608-1.2742 2.4636 0.09571 0.99609 0.64287 1.7763 1.5274 2.178 0.96721 0.43926 3.1138 0.43076 4.3107-0.0171zm18.682 3.3276c-2.8951-0.5811-5.4402-2.5159-6.6516-5.0566-0.83015-1.741-0.98843-2.4745-0.99186-4.5965-0.0034-2.0986 0.23612-3.1825 1.0669-4.8283 1.0473-2.0747 2.9598-3.7666 5.0835-4.4973 2.9292-1.0078 6.5737-0.63327 8.5765 0.88136 0.38958 0.29463 0.80594 0.60797 0.92525 0.6963 0.1193 0.0883 0.25654 0.12099 0.30497 0.0726 0.04843-0.0484 0.12031-2.1811 0.15973-4.7392l0.07167-4.6512h4.2751v26.473l-4.0791 0.0936v-1.0093c0-1.3141-0.24756-1.4154-1.2668-0.51825-0.86213 0.75887-2.1433 1.4192-3.2472 1.6737-0.85069 0.19611-3.2637 0.19977-4.227 6e-3zm5.2454-4.0852c2.4744-1.3284 3.63-3.794 3.1694-6.7626-0.34186-2.2033-1.4481-3.7363-3.3291-4.6132-0.77629-0.36191-1.1625-0.43087-2.4253-0.43307-1.3637-2e-3 -1.6041 0.0477-2.6114 0.54358-2.3289 1.1465-3.4049 3.124-3.2649 6.0005 0.13468 2.7678 1.5018 4.66 4.0151 5.557 1.3302 0.47474 3.2529 0.34836 4.4462-0.29224zm19.562 4.021c-4.0711-0.7958-6.9462-3.5112-7.8077-7.3741-0.7915-3.5488 0.13839-6.8376 2.6277-9.2937 0.65127-0.64258 1.5719-1.3747 2.0458-1.627 2.6237-1.3965 7.1226-1.5135 9.6175-0.25005 1.974 0.99967 3.8962 3.1796 4.5935 5.2098 0.37642 1.0958 0.78512 4.1817 0.61318 4.6298-0.0994 0.259-0.71505 0.28183-7.5998 0.28183-8.7133 0-8.1996-0.1142-7.3284 1.6293 0.60411 1.2089 1.6857 2.2444 2.9593 2.8332 0.77479 0.35817 1.2518 0.44878 2.6499 0.5034 1.4598 0.057 1.8599 0.0119 2.7825-0.31377 0.59259-0.20921 1.4651-0.6738 1.939-1.0324l0.86151-0.65205 1.1428 1.134c0.62852 0.6237 1.1428 1.2141 1.1428 1.3119 0 0.28094-1.3408 1.4949-2.1644 1.9597-1.9187 1.0827-5.5156 1.5505-8.075 1.0502zm7.0344-11.026c0.5286-0.14166 0.48706-0.78231-0.13091-2.019-0.90672-1.8145-2.466-2.854-4.4991-2.9995-1.1559-0.0827-2.6342 0.238-3.4683 0.75241-1.3098 0.80783-2.4646 2.4215-2.5555 3.5709l-0.04351 0.55038 1.665 0.0926c2.4112 0.13415 8.5932 0.16986 9.0324 0.0522zm38.752 11.011c-0.64101-0.13259-1.7793-0.54432-2.5296-0.91495-4.0292-1.9904-6.1071-6.4107-5.1117-10.874 0.44086-1.9766 1.1169-3.2021 2.5456-4.6145 2.1189-2.0947 4.4963-3.0336 7.6763-3.0318 2.6235 2e-3 4.5103 0.54419 6.1424 1.7666 0.71594 0.53621 2.1959 2.277 2.0865 2.4541-0.0455 0.0736-0.79652 0.55386-1.669 1.0674l-1.5864 0.93364-0.85507-0.86866c-1.2485-1.2683-2.3434-1.7225-4.1184-1.7082-0.86522 7e-3 -1.6934 0.11533-2.1309 0.27889-2.518 0.94126-3.9946 3.3886-3.824 6.3385 0.10249 1.7729 0.64129 2.9795 1.8631 4.1724 1.1843 1.1562 2.3491 1.6126 4.1384 1.6214 1.1174 6e-3 1.4374-0.0638 2.3309-0.50489 0.56962-0.2812 1.4036-0.88589 1.8534-1.3438l0.8177-0.83249 1.5965 0.85165c0.87806 0.4684 1.622 0.87094 1.6533 0.89453 0.19829 0.14965-0.3205 0.90261-1.2856 1.8658-1.174 1.1718-2.3782 1.8863-3.8712 2.2973-1.318 0.36277-4.3156 0.44181-5.7222 0.15088zm20.812-0.0209c-3.7844-0.78947-6.7385-3.5417-7.6552-7.1321-0.77393-3.0315 0.0962-6.8053 2.0643-8.9535 2.0967-2.2885 4.4638-3.2905 7.7733-3.2905 3.1776 0 4.9208 0.66878 6.9088 2.6506 1.991 1.9849 2.8132 4.0106 2.8132 6.931v1.407h-7.4804c-8.4629 0-8.23-0.0341-7.7443 1.1338 0.66857 1.6076 2.1057 2.934 3.8345 3.539 1.5016 0.52548 3.6305 0.49107 5.1466-0.0832 0.64101-0.2428 1.442-0.66301 1.7801-0.93381 0.33803-0.27079 0.7195-0.49235 0.84771-0.49235 0.24776 0 2.2838 2.0343 2.2838 2.2818 0 0.0804-0.31842 0.45726-0.7076 0.8374-0.8664 0.84625-2.8186 1.7937-4.3753 2.1234-1.4546 0.30813-3.964 0.29961-5.4896-0.0186zm7.5858-11.161c0.26546-0.26581-0.20441-1.6484-0.91118-2.6813-1.794-2.6216-6.3524-2.9328-8.6177-0.58843-0.79145 0.81908-1.4701 2.1174-1.4701 2.8126 0 0.53417 0.0211 0.55062 0.79085 0.61688 1.8473 0.159 10.017 0.0311 10.208-0.15975zm81.504 11.169c-4.7124-1.0566-7.7889-4.7895-7.7862-9.4472 2e-3 -2.6297 0.63043-4.5342 2.1277-6.4433 1.8372-2.3425 4.4935-3.5352 7.8914-3.5434 2.935-7e-3 4.9701 0.811 6.9132 2.7787 1.7944 1.8171 2.7435 4.2232 2.7435 6.9546v1.3053h-7.3122c-4.0217 0-7.4307 0.0455-7.5755 0.10106-0.40376 0.15494-0.31357 0.88817 0.22469 1.8266 1.9658 3.4272 7.3652 4.2263 10.422 1.5423l0.59968-0.52653 1.2289 1.2207 1.2289 1.2207-0.32785 0.46042c-0.51216 0.71927-2.2708 1.7789-3.7333 2.2494-1.7223 0.55409-4.8776 0.69677-6.645 0.30048zm6.5618-11.037c0.95861-0.0934 1.0883-0.14832 1.1356-0.48109 0.0734-0.51713-0.63598-1.9782-1.3688-2.8192-1.3582-1.5586-4.0606-2.1622-6.1768-1.3796-1.3295 0.49168-2.9049 2.0462-3.3102 3.2662-0.46141 1.3892-0.48607 1.3765 2.7854 1.4334 5.1195 0.0891 5.8382 0.087 6.9348-0.0198zm-146.85 1.3879v-9.5786l4.0791 0.0935 0.0502 0.96586c0.0622 1.1978 0.33986 1.3647 1.0846 0.65219 0.69105-0.66114 2.2889-1.4498 3.4521-1.704 0.56233-0.12286 1.6702-0.17297 2.8304-0.12802 2.6246 0.10167 3.5118 0.45571 5.0856 2.0296 2.0352 2.0352 2.2319 3.043 2.2319 11.438v5.8203l-4.2456-0.0932-0.0833-6.0771-0.0832-6.0771-0.46845-0.95395c-0.85829-1.7478-2.4323-2.5764-4.5999-2.4213-2.4994 0.17883-4.2882 1.7597-4.8176 4.2575-0.11568 0.54578-0.18701 2.8795-0.18701 6.1187v5.2364h-4.3289zm72.67 9.3705c-0.043-0.11446-0.0968-4.9657-0.11965-10.781l-0.0414-10.572-8.408-0.089v-3.6572h21.644v3.6629h-4.1291c-2.9895 0-4.1842 0.0551-4.3289 0.19979-0.15122 0.15122-0.19979 2.7823-0.19979 10.822v10.622h-2.1697c-1.583 0-2.1908-0.0563-2.2479-0.20812zm16.149 0c-0.0438-0.11446-0.0602-4.4038-0.0364-9.5318l0.0432-9.3237h4.1624l0.043 9.5319 0.043 9.5318h-2.0878c-1.5168 0-2.1096-0.0569-2.1674-0.20812zm8.4913 0c-0.0438-0.11446-0.0602-4.4038-0.0364-9.5318l0.0432-9.3237 4.0393-0.0932 0.11642 1.0872c0.064 0.59795 0.19504 1.0872 0.29112 1.0872 0.0961 0 0.47421-0.2706 0.84031-0.60134 0.36609-0.33074 1.1619-0.83364 1.7684-1.1175 1.0013-0.46869 1.2881-0.52238 3.1168-0.58337 3.011-0.10043 4.6544 0.47235 6.2575 2.1809l0.77921 0.83047 0.96899-0.84116c1.9537-1.6959 3.7652-2.279 6.7088-2.1591 3.0064 0.12241 4.5407 0.87349 5.9285 2.9022 1.2812 1.8728 1.2894 1.9306 1.358 9.5868l0.0608 6.7847h-4.1395l-0.11506-2.2061c-0.0633-1.2133-0.0936-3.8169-0.0675-5.7857 0.0543-4.0851-0.10576-4.9462-1.1454-6.1608-0.94306-1.1018-1.7022-1.4122-3.4574-1.4136-1.3386-1e-3 -1.5901 0.0496-2.3574 0.47489-0.96297 0.53373-1.6972 1.4487-2.1564 2.6873-0.27412 0.73933-0.31474 1.4798-0.36306 6.6182l-0.0544 5.7857h-4.2864l-0.0644-5.869c-0.0714-6.5058-0.16099-7.1456-1.1727-8.3729-1.0017-1.2152-3.1397-1.7467-4.9756-1.2368-1.6736 0.46484-3.0661 2.054-3.4426 3.9287-0.11945 0.59481-0.19075 2.9309-0.19075 6.2499v5.3001h-2.0864c-1.5157 0-2.1082-0.0569-2.166-0.20812zm58.641 0.0971c-0.061-0.061-0.11099-4.3714-0.11099-9.5786v-9.4676l4.0791 0.0935 0.0494 1.1321c0.0613 1.4052 0.2954 1.5464 1.0955 0.66081 1.0513-1.1637 3.1887-2.0426 4.9671-2.0426h0.79749v3.9959l-1.1238 7e-3c-2.167 0.0133-3.8498 0.97699-4.684 2.6821-0.28444 0.58141-0.59249 1.4607-0.68454 1.9539-0.0921 0.49325-0.16738 3.0968-0.16738 5.7857v4.8889h-2.0534c-1.1294 0-2.1034-0.0499-2.1644-0.111zm-65.638-22.517c-1.8781-0.46803-2.8183-2.4198-1.8602-3.8616 0.45244-0.68082 1.6361-1.315 2.4545-1.315 0.75696 0 1.9604 0.61026 2.4044 1.2193 0.48416 0.66404 0.47999 2.235-8e-3 2.8892-0.66345 0.89005-1.9137 1.3365-2.9911 1.068z" fill="#0c2743"/></svg>
