<?xml version="1.0" encoding="UTF-8"?>
<!-- Created with Inkscape (http://www.inkscape.org/) -->
<svg width="150mm" height="100mm" version="1.1" viewBox="0 0 150 100" xml:space="preserve" xmlns="http://www.w3.org/2000/svg"><g transform="translate(-78.134 -37.673)"><g transform="translate(6.303 5.172)"><path d="m181.03 125.16c-0.30222-0.13154-0.55812-0.38939-0.61319-0.61784-0.052-0.21565-0.0396-1.4319 0.0274-2.7028 0.15074-2.8562 0.20565-2.9308 2.1635-2.9396 0.69954-3e-3 2.1335-0.11842 3.1866-0.25624 3.457-0.45242 3.5767-0.45882 3.7894-0.20258 0.24771 0.29847 1.372 4.1781 1.372 4.7344 0 0.96378-0.33974 1.1647-2.7472 1.6245-3.0853 0.58929-6.2834 0.74974-7.1785 0.36015zm-9.6375-1.6016c-2.3389-0.78436-5.8262-2.4535-6.5618-3.1407-0.29314-0.27383-0.51422-0.64896-0.51422-0.87253 0-0.48946 2.3454-4.0288 2.9186-4.4044 0.41237-0.2702 0.4719-0.25241 2.4565 0.73388 1.1186 0.55594 2.6924 1.2394 3.4972 1.5189 1.8203 0.63211 2.068 0.7642 2.1975 1.1721 0.0817 0.25727-0.47248 2.9032-1.0211 4.8758-0.1021 0.36709-0.52171 0.7926-0.77845 0.78939-0.10793-1e-3 -1.0953-0.30397-2.1942-0.67248zm25.518-2.4474c-0.64175-0.72779-2.3461-4.604-2.2113-5.0289 0.0559-0.17629 0.75369-0.7486 1.5505-1.2718 1.6189-1.0629 3.1332-2.1832 4.0716-3.0122 1.0138-0.89558 1.3608-0.79692 3.2496 0.924 2.1496 1.9585 2.2623 2.0934 2.1438 2.5652-0.20704 0.82492-4.8008 4.5376-6.9708 5.6338-1.101 0.5562-1.4761 0.59505-1.8334 0.18986zm-38.727-5.932c-0.96784-0.71406-2.6182-2.7145-4.3704-5.2974-1.1988-1.7672-1.4266-2.5347-0.94315-3.1771 0.30298-0.40255 3.5778-1.9774 4.3184-2.0768 0.37266-0.05 0.73137-2e-3 0.87491 0.1172 0.13381 0.11105 0.72716 0.92624 1.3186 1.8115s1.6439 2.2364 2.339 3.0024c0.84777 0.93435 1.2637 1.5264 1.2637 1.7988 0 0.27602-0.50995 0.98524-1.5925 2.2148-1.9685 2.2358-2.1991 2.3513-3.2086 1.6065zm49.323-6.6976c-0.99866-0.69653-1.9469-1.3824-2.1071-1.5243-0.43203-0.38234-0.35441-1.161 0.20218-2.0284 0.66826-1.0414 1.5498-2.994 2.025-4.4854 0.56036-1.7585 0.58346-1.767 3.3615-1.2408 2.8802 0.54563 3.1924 0.74556 3.0565 1.9572-0.19109 1.7038-2.7509 7.616-3.5798 8.268-0.22378 0.17602-0.5724 0.32003-0.77473 0.32003-0.20232 0-1.185-0.56988-2.1836-1.2664zm5.9263-14.81c-0.22893-0.0316-1.1471-0.10553-2.0404-0.16428-2.336-0.15363-2.3084-0.11973-2.4644-3.0366-0.0691-1.2932-0.21981-3.0399-0.33484-3.8816-0.19774-1.447-0.19178-1.5431 0.10916-1.7632 0.43175-0.3157 4.3279-1.5504 4.8924-1.5504 0.70847 0 0.98352 0.47821 1.3345 2.3202 0.67665 3.5511 0.80184 7.3795 0.25611 7.8324-0.25206 0.20919-1.1237 0.33029-1.7525 0.24348z" fill="#6ab0d6"/><path d="m108.71 127.22c-8.6011-1.1868-16.494-5.7108-22.055-12.642-4.2474-5.2933-6.8462-10.767-7.9059-16.652-1.1976-6.651-0.62945-13.613 1.6012-19.62 3.2744-8.818 9.2294-15.725 17.244-20.001 2.8899-1.5419 7.2259-2.9721 10.45-3.4468 2.1473-0.31616 7.0664-0.35312 8.9075-0.06694 9.414 1.4633 16.673 6.1731 23.622 15.326 1.8258 2.405 3.2673 4.6195 3.2673 5.0195 0 0.13486-0.61042 1.2524-1.3565 2.4835s-2.1341 3.5494-3.0846 5.1519c-0.95044 1.6025-1.7878 2.9342-1.8607 2.9593-0.20194 0.06955-0.45824-0.27517-2.943-3.9583-3.4827-5.1624-4.441-6.4045-6.551-8.4915-3.6859-3.6458-6.7716-5.5216-10.7-6.5045-1.9873-0.4972-5.8429-0.62123-7.9758-0.25657-5.3179 0.90922-9.4205 3.2386-13.375 7.5938-2.6339 2.901-4.7989 7.3345-5.732 11.738-0.36325 1.7142-0.4246 2.4353-0.43206 5.0781-0.0097 3.4454 0.21146 5.0396 1.0639 7.6685 0.59873 1.8464 2.0018 4.7866 3.0145 6.3171 4.581 6.923 12.501 11.236 19.709 10.731 5.437-0.3808 9.5322-2.3756 13.997-6.8181 3.6534-3.6351 7.3066-8.8722 13.472-19.313 8.7587-14.832 12.08-19.721 16.682-24.557 4.8183-5.0632 11.122-8.7348 17.293-10.073 2.1952-0.47591 2.0782-0.27137 2.0752-3.6266-1e-3 -1.5775-0.0699-2.9745-0.1521-3.1045-0.10177-0.16078-0.63453-0.27127-1.6673-0.34576-1.6178-0.11669-2.0635-0.31627-2.7464-1.2297-0.31088-0.41585-0.34826-0.73656-0.39607-3.3986-0.0348-1.9366 0.0154-3.1831 0.14716-3.6536 0.23655-0.84489 1.0693-1.6475 1.8584-1.7913 0.29957-0.05458 3.9911-0.077 8.2034-0.04984l7.6588 0.04939 0.56051 0.39977c1.0108 0.72088 1.1799 1.3828 1.184 4.6333 5e-3 4.2907-0.3013 4.8002-3.051 5.0667-0.83819 0.08124-1.6176 0.18102-1.7321 0.22172-0.26282 0.09346-0.30282 6.1666-0.0417 6.328 0.0915 0.05658 1.1592 0.35404 2.3726 0.66103 3.9634 1.0028 6.9549 2.2707 10.485 4.4442 1.0707 0.6592 1.7194 0.96154 1.9147 0.89248 0.34184-0.12084 2.9315-3.1487 3.016-3.5264 0.0312-0.1393-0.0949-0.41517-0.28028-0.61304-0.99602-1.0634-0.80106-1.9614 0.77779-3.5826 1.6493-1.6935 2.196-1.686 4.1909 0.05778 0.59522 0.52028 1.7507 1.5202 2.5676 2.222 3.2777 2.8157 3.5375 3.1318 3.3571 4.0851-0.15309 0.80911-1.4008 2.5485-2.2573 3.1469-0.58228 0.40681-1.343 0.35795-2.0025-0.12863-0.31029-0.22893-0.69139-0.41624-0.84688-0.41624-0.43168 0-3.3161 3.2021-3.3149 3.68 3.1e-4 0.12793 0.45707 0.75706 1.015 1.3981 1.2652 1.4535 2.979 3.9223 3.4064 4.9068 0.46743 1.0769 0.44044 3.2937-0.0534 4.3846-0.45261 0.99983-1.9024 2.4336-2.9732 2.9404-1.0861 0.51405-2.7152 0.62902-3.926 0.27704-1.5023-0.43673-2.4112-1.17-3.845-3.1019-1.7929-2.4159-3.0468-3.7838-4.655-5.0783-7.0118-5.644-15.85-6.7937-23.351-3.0377-2.8691 1.4367-6.5814 4.7025-9.4148 8.2824-2.203 2.7835-5.6654 8.1718-9.7355 15.151-5.1142 8.7696-10.239 16.861-12.667 20-1.969 2.5453-4.4588 5.3333-6.0772 6.8048-5.1955 4.7244-9.9955 7.2401-16.383 8.5862-1.8429 0.38837-2.6344 0.46301-5.3278 0.50238-1.7399 0.0254-3.6504-0.021-4.2456-0.10309z" fill="#0d5994"/></g></g></svg>
