<svg xmlns="http://www.w3.org/2000/svg" viewBox="0 0 500 320" role="img" aria-label="Logo CadenceTimer - Loop Infinito">
  <defs>
    <color id="darkBlue" value="#004a99"/>
    <color id="lightBlue" value="#5cbbf2"/>
  </defs>

  <g transform="translate(250, 140) scale(0.9)">
    
    <g fill="none" stroke-width="24" stroke-linecap="round" stroke-linejoin="round">
      
      <path d="M 0,75 C -80,75 -140,20 -140,-50 C -140,-120 -80,-165 0,-165 C 50,-165 90,-140 120,-100" stroke="#004a99"/>

      <path d="M 120,-100 C 150,-60 150,-10 120,30 C 90,75 40,75 0,75" stroke="#5cbbf2" stroke-dasharray="1, 35"/>
    </g>

    <g fill="#004a99" stroke="none">
      <rect x="-15" y="-195" width="30" height="20" />
      <rect x="-25" y="-215" width="50" height="20" rx="4" />
      
      <g transform="translate(75, -150) rotate(30)">
        <rect x="-8" y="0" width="16" height="15" />
        <rect x="-12" y="-12" width="24" height="12" rx="3" />
      </g>
    </g>
  </g>

  <g font-family="'Arial', sans-serif" text-anchor="middle" fill="#002a55">
    <text x="250" y="290" font-size="56" font-weight="600" letter-spacing="-1">CadenceTimer</text>
  </g>
</svg>
